# File created by Blade
# Date/Time:  Thu Sep 25 17:54:10 2014
# Frame Rate: 120.000 fps
#------------------------------------------------------
:FULLY-SPECIFIED
:DEGREES
2199
root 0.641962 32.544024 -6.402795 25.706818 -2.084633 -0.976688
Spine -32.617596 -30.281922 17.260865
Head -21.936474 20.397228 -0.528673
LeftShoulder -14.288076 -63.668702 73.523466
LeftArm 72.889885 21.442999 -103.946545
LeftForeArm -6.932769 0.000000 90.535005
LeftHand -15.533426 -0.000000 -7.045097
LeftHandThumb1 -26.253704 0.000000 33.147579
RightShoulder -5.591762 13.632214 -45.645006
RightArm 63.561299 -7.051530 112.915471
RightForeArm 60.961950 -0.000000 133.251595
RightHand 15.602888 -0.000000 -44.412389
RightHandThumb1 -24.326973 -0.000000 -32.862282
LeftUpLeg -19.489684 6.384326 -1.354181
LeftLeg -1.603761 -0.000000 0.000000
LeftFoot -5.623705 -0.805483 -0.800603
LeftToeBase 3.300256 -0.000000 -0.000000
RightUpLeg -20.675313 -7.206189 3.449323
RightLeg -1.055525 -0.000000 0.000000
RightFoot -6.744501 1.608246 12.179129
RightToeBase 15.672754 -0.000000 -0.000000
2200
root 0.646517 32.542202 -6.404693 25.711418 -2.124384 -0.980632
Spine -32.637690 -30.460196 17.330592
Head -22.105069 20.753313 -0.250146
LeftShoulder -13.892752 -63.228106 73.220288
LeftArm 73.616206 21.821122 -103.722421
LeftForeArm -6.696850 -0.000000 90.719075
LeftHand -15.640574 -0.000000 -7.233234
LeftHandThumb1 -26.253704 0.000000 33.147579
RightShoulder -5.834400 13.629336 -45.496897
RightArm 63.249431 -7.088889 112.885103
RightForeArm 60.795764 0.000000 133.346369
RightHand 15.577232 0.000000 -44.441748
RightHandThumb1 -24.326973 -0.000000 -32.862282
LeftUpLeg -19.488808 6.376786 -1.358396
LeftLeg -1.606689 -0.000000 0.000000
LeftFoot -5.650877 -0.777790 -0.817061
LeftToeBase 3.353954 -0.000000 -0.000000
RightUpLeg -20.686956 -7.157899 3.424706
RightLeg -1.050983 -0.000000 0.000000
RightFoot -6.753590 1.600670 12.169743
RightToeBase 15.605452 -0.000000 -0.000000
2201
root 0.651127 32.541377 -6.407502 25.714078 -2.161450 -0.991899
Spine -32.715373 -30.709598 17.501263
Head -22.195887 21.170549 -0.061288
LeftShoulder -13.926760 -63.095584 73.295057
LeftArm 73.771823 22.108877 -103.709362
LeftForeArm -6.504114 -0.000000 90.941319
LeftHand -15.300351 -0.000000 -7.648772
LeftHandThumb1 -26.253704 0.000000 33.147579
RightShoulder -5.964199 13.522440 -45.321503
RightArm 63.128325 -7.232202 112.801538
RightForeArm 60.497067 -0.000000 133.391293
RightHand 15.503748 -0.000000 -44.655580
RightHandThumb1 -24.326973 -0.000000 -32.862282
LeftUpLeg -19.498155 6.369882 -1.354954
LeftLeg -1.589746 -0.000000 0.000000
LeftFoot -5.673765 -0.743312 -0.824183
LeftToeBase 3.329224 -0.000000 -0.000000
RightUpLeg -20.708320 -7.131254 3.416772
RightLeg -1.025863 -0.000000 0.000000
RightFoot -6.802948 1.590888 12.098767
RightToeBase 15.737088 -0.000000 -0.000000
2202
root 0.656446 32.540537 -6.410709 25.725032 -2.206412 -0.997513
Spine -32.729052 -30.846955 17.560985
Head -22.309579 21.580173 0.168126
LeftShoulder -13.176889 -62.249878 72.616743
LeftArm 75.069260 22.590976 -103.138805
LeftForeArm -5.920672 0.000000 91.073715
LeftHand -15.496833 -0.000000 -7.710511
LeftHandThumb1 -26.253704 0.000000 33.147579
RightShoulder -6.219495 13.406610 -45.149848
RightArm 62.946397 -7.320806 112.806760
RightForeArm 60.437025 -0.000000 133.433857
RightHand 15.716786 0.000000 -44.510712
RightHandThumb1 -24.326973 -0.000000 -32.862282
LeftUpLeg -19.518665 6.370199 -1.361984
LeftLeg -1.569880 -0.000000 0.000000
LeftFoot -5.699997 -0.719986 -0.828395
LeftToeBase 3.378485 -0.000000 -0.000000
RightUpLeg -20.743478 -7.133120 3.407748
RightLeg -1.000597 -0.000000 0.000000
RightFoot -6.766505 1.669230 12.226876
RightToeBase 15.682891 -0.000000 -0.000000
2203
root 0.662369 32.539608 -6.414680 25.736997 -2.259951 -1.000375
Spine -32.773351 -30.995776 17.641759
Head -22.314250 22.029759 0.446995
LeftShoulder -12.695743 -61.675858 72.161337
LeftArm 75.974105 22.965193 -102.724582
LeftForeArm -5.755265 -0.000000 91.130454
LeftHand -15.236576 0.000000 -8.040196
LeftHandThumb1 -26.253704 0.000000 33.147579
RightShoulder -6.379836 13.312670 -44.989010
RightArm 62.782735 -7.376621 112.846453
RightForeArm 60.342541 -0.000000 133.508464
RightHand 15.571132 0.000000 -44.845654
RightHandThumb1 -24.326973 -0.000000 -32.862282
LeftUpLeg -19.544074 6.375800 -1.378064
LeftLeg -1.538978 -0.000000 0.000000
LeftFoot -5.727342 -0.680584 -0.819675
LeftToeBase 3.335049 -0.000000 -0.000000
RightUpLeg -20.770581 -7.083764 3.384276
RightLeg -0.987239 -0.000000 0.000000
RightFoot -6.820171 1.624057 12.074831
RightToeBase 15.786835 -0.000000 -0.000000
2204
root 0.670193 32.539060 -6.418281 25.736583 -2.305825 -1.003744
Spine -32.780810 -31.111780 17.689024
Head -22.318261 22.409248 0.746798
LeftShoulder -12.996448 -61.862039 72.460220
LeftArm 75.864560 23.259462 -102.812783
LeftForeArm -5.110543 -0.000000 91.248117
LeftHand -14.965371 -0.000000 -8.175795
LeftHandThumb1 -26.253704 0.000000 33.147579
RightShoulder -6.605060 13.281910 -44.841666
RightArm 62.549894 -7.429734 112.889224
RightForeArm 60.427404 -0.000000 133.564655
RightHand 15.805659 0.000000 -45.073988
RightHandThumb1 -24.326973 -0.000000 -32.862282
LeftUpLeg -19.553141 6.386459 -1.399785
LeftLeg -1.522173 -0.000000 0.000000
LeftFoot -5.753453 -0.642585 -0.803722
LeftToeBase 3.388162 -0.000000 -0.000000
RightUpLeg -20.785078 -7.056486 3.360582
RightLeg -0.981397 -0.000000 0.000000
RightFoot -6.773996 1.648682 12.191763
RightToeBase 15.628189 -0.000000 -0.000000
2205
root 0.679194 32.538075 -6.421955 25.738146 -2.355459 -0.998760
Spine -32.814014 -31.232255 17.757785
Head -22.268595 22.699608 1.028879
LeftShoulder -13.160740 -61.981231 72.679859
LeftArm 75.842213 23.459142 -102.860174
LeftForeArm -4.517619 -0.000000 91.473495
LeftHand -15.219075 -0.000000 -8.340218
LeftHandThumb1 -26.253704 0.000000 33.147579
RightShoulder -6.761558 13.220122 -44.656837
RightArm 62.414421 -7.484060 112.953194
RightForeArm 60.489569 -0.000000 133.621879
RightHand 15.759214 -0.000000 -45.169654
RightHandThumb1 -24.326973 -0.000000 -32.862282
LeftUpLeg -19.566791 6.350634 -1.406130
LeftLeg -1.491962 -0.000000 0.000000
LeftFoot -5.773777 -0.607309 -0.854584
LeftToeBase 3.382664 -0.000000 -0.000000
RightUpLeg -20.809221 -7.038678 3.331984
RightLeg -0.959165 -0.000000 0.000000
RightFoot -6.796196 1.657677 12.197728
RightToeBase 15.662220 -0.000000 -0.000000
2206
root 0.687727 32.537503 -6.425231 25.743285 -2.408947 -0.993089
Spine -32.839783 -31.321521 17.810303
Head -22.222943 22.910173 1.294553
LeftShoulder -13.329885 -62.015531 72.980398
LeftArm 75.893055 23.613326 -102.972472
LeftForeArm -3.907368 -0.000000 91.803032
LeftHand -15.321680 -0.000000 -8.654553
LeftHandThumb1 -26.253704 0.000000 33.147579
RightShoulder -6.965069 13.178477 -44.495883
RightArm 62.249241 -7.543939 113.028315
RightForeArm 60.455173 -0.000000 133.661275
RightHand 15.875308 -0.000000 -45.239137
RightHandThumb1 -24.326973 -0.000000 -32.862282
LeftUpLeg -19.590495 6.364335 -1.434515
LeftLeg -1.454101 -0.000000 0.000000
LeftFoot -5.794932 -0.600277 -0.864343
LeftToeBase 3.377061 -0.000000 -0.000000
RightUpLeg -20.827169 -6.999957 3.294742
RightLeg -0.956389 -0.000000 0.000000
RightFoot -6.796536 1.658243 12.208558
RightToeBase 15.677170 -0.000000 -0.000000
2207
root 0.696088 32.537874 -6.428626 25.760295 -2.471844 -0.993303
Spine -32.855357 -31.360595 17.829495
Head -22.170912 23.126389 1.613300
LeftShoulder -12.957802 -61.618587 72.634393
LeftArm 76.602924 23.936293 -102.702635
LeftForeArm -3.168213 -0.000000 92.000453
LeftHand -15.339769 -0.000000 -8.944795
LeftHandThumb1 -26.253704 0.000000 33.147579
RightShoulder -7.167179 12.999113 -44.264649
RightArm 62.233891 -7.665739 113.063537
RightForeArm 60.352973 -0.000000 133.691907
RightHand 15.908273 -0.000000 -45.373253
RightHandThumb1 -24.326973 -0.000000 -32.862282
LeftUpLeg -19.626821 6.396381 -1.465471
LeftLeg -1.412565 -0.000000 0.000000
LeftFoot -5.820889 -0.610493 -0.885705
LeftToeBase 3.398412 -0.000000 -0.000000
RightUpLeg -20.870654 -6.958815 3.266703
RightLeg -0.922117 -0.000000 0.000000
RightFoot -6.862914 1.618211 12.079547
RightToeBase 15.876003 -0.000000 -0.000000
2208
root 0.705195 32.538132 -6.431678 25.754826 -2.525549 -0.991219
Spine -32.888834 -31.434599 17.891806
Head -22.034201 23.358335 1.828761
LeftShoulder -13.095558 -61.671558 72.775610
LeftArm 76.610155 24.116971 -102.768862
LeftForeArm -2.611075 -0.000000 92.236913
LeftHand -15.401702 -0.000000 -9.318271
LeftHandThumb1 -26.253704 0.000000 33.147579
RightShoulder -7.311553 12.977251 -44.093835
RightArm 62.090875 -7.736203 113.159269
RightForeArm 60.243223 -0.000000 133.737475
RightHand 15.958813 -0.000000 -45.262860
RightHandThumb1 -24.326973 -0.000000 -32.862282
LeftUpLeg -19.633429 6.378602 -1.479227
LeftLeg -1.383497 -0.000000 0.000000
LeftFoot -5.844163 -0.573392 -0.923154
LeftToeBase 3.426793 -0.000000 -0.000000
RightUpLeg -20.881228 -6.939344 3.235595
RightLeg -0.914326 -0.000000 0.000000
RightFoot -6.849406 1.639952 12.114907
RightToeBase 15.844614 -0.000000 -0.000000
2209
root 0.715502 32.536498 -6.437826 25.791173 -2.591038 -0.978867
Spine -32.978778 -31.517546 17.972090
Head -21.830893 23.637394 2.106768
LeftShoulder -12.926077 -61.433678 72.651933
LeftArm 76.997170 24.323975 -102.650200
LeftForeArm -2.044170 -0.000000 92.437057
LeftHand -15.721595 -0.000000 -9.459737
LeftHandThumb1 -26.253704 0.000000 33.147579
RightShoulder -7.415657 12.953972 -43.872651
RightArm 62.032591 -7.818836 113.183430
RightForeArm 60.076597 -0.000000 133.760435
RightHand 15.955998 0.000000 -45.391719
RightHandThumb1 -24.326973 -0.000000 -32.862282
LeftUpLeg -19.697676 6.381235 -1.518472
LeftLeg -1.330661 -0.000000 0.000000
LeftFoot -5.876227 -0.557656 -0.910935
LeftToeBase 3.382371 -0.000000 -0.000000
RightUpLeg -20.947764 -6.883829 3.184949
RightLeg -0.884067 -0.000000 0.000000
RightFoot -6.869671 1.624890 12.122497
RightToeBase 15.777146 -0.000000 -0.000000
